<?xml version="1.0" encoding="utf-8"?>
<!-- Generator: Adobe Illustrator 21.1.0, SVG Export Plug-In . SVG Version: 6.00 Build 0)  -->
<svg version="1.0" id="FIFA_18_logo" xmlns="http://www.w3.org/2000/svg" xmlns:xlink="http://www.w3.org/1999/xlink" x="0px"
	 y="0px" width="1785.871px" height="470.65px" viewBox="0 0 1785.871 470.65" enable-background="new 0 0 1785.871 470.65"
	 xml:space="preserve">
<g>
	<g>
		<path fill="#FFFFFF" d="M236.007,0.168C106.359,0.168,0.868,105.653,0.868,235.327c0,129.655,105.491,235.155,235.138,235.155
			c129.634,0,235.138-105.5,235.138-235.155C471.145,105.653,365.64,0.168,236.007,0.168z M236.007,437.859
			c-111.85,0-202.501-90.669-202.501-202.533c0-111.87,90.651-202.513,202.501-202.513c111.853,0,202.515,90.642,202.515,202.513
			C438.522,347.19,347.86,437.859,236.007,437.859z"/>
		<polygon fill="#FFFFFF" points="390.667,274.234 393.057,274.234 393.057,279.328 394.262,279.328 394.262,274.234 
			396.652,274.234 396.652,273.179 390.667,273.179 		"/>
		<path fill="#FFFFFF" d="M110.187,296.803H96.642c-3.047,0-4.546-1.668-4.546-5v-5.344c0-1.527,0.375-2.765,1.248-3.765
			c0.813-0.996,1.909-1.488,3.298-1.488h10.626c2.499,0,4.203,1.207,4.966,3.668l1.47,5.171h9.731v-5.702
			c0-3.804-1.248-6.93-3.811-9.468c-2.595-2.516-5.751-3.781-9.438-3.781H94.453c-3.701,0-6.921,1.309-9.59,3.952
			c-2.595,2.622-3.906,5.781-3.906,9.457v9.172c0,3.741,1.311,6.925,3.906,9.577c2.669,2.645,5.889,3.937,9.59,3.937h13.549
			c2.998,0,4.5,1.738,4.5,5.144v6.945c0,1.464-0.407,2.75-1.205,3.715c-0.859,1.012-1.955,1.496-3.294,1.496H97.221
			c-2.718,0-4.376-1.242-5.03-3.648l-1.439-5.844h-9.795v6.308c0,3.847,1.248,6.976,3.796,9.507
			c2.531,2.524,5.702,3.796,9.484,3.796h15.949c3.687,0,6.907-1.328,9.534-3.972c2.591-2.601,3.888-5.8,3.888-9.565v-10.746
			c0-3.676-1.297-6.828-3.952-9.507C117.016,298.139,113.846,296.803,110.187,296.803z"/>
		<path fill="#FFFFFF" d="M165.483,271.094h-28.717v63.515h11.216v-23.31h17.501c3.719,0,6.935-1.332,9.622-3.953
			c2.609-2.625,3.938-5.797,3.938-9.531v-13.346c0-3.656-1.329-6.828-3.938-9.422C172.418,272.402,169.202,271.094,165.483,271.094z
			 M167.809,295.826c0,1.531-0.438,2.75-1.28,3.753c-0.827,0.973-1.937,1.473-3.234,1.473h-15.313v-19.706h15.313
			c1.297,0,2.407,0.477,3.234,1.469c0.841,0.985,1.28,2.196,1.28,3.742V295.826z"/>
		<path fill="#FFFFFF" d="M285.753,303.365c1.58-2.313,2.375-4.945,2.375-7.82v-11.076c0-3.641-1.329-6.828-3.952-9.422
			c-2.609-2.644-5.797-3.952-9.562-3.952h-28.077v63.515h11.234v-24.858h10.654l10.343,24.858h11.937l-11.138-26.244
			C282.006,307.286,284.098,305.658,285.753,303.365z M276.863,294.385c0,1.512-0.389,2.75-1.202,3.726
			c-0.813,0.931-1.891,1.406-3.188,1.406h-14.701v-18.171h14.701c1.297,0,2.375,0.477,3.188,1.469
			c0.813,0.985,1.202,2.23,1.202,3.742V294.385z"/>
		<polygon fill="#FFFFFF" points="295.205,281.346 311.345,281.346 311.345,334.608 322.593,334.608 322.593,281.346 
			338.889,281.346 338.889,271.094 295.205,271.094 		"/>
		<path fill="#FFFFFF" d="M376.263,296.803h-13.514c-3.001,0-4.532-1.668-4.532-5v-5.344c0-1.527,0.421-2.765,1.234-3.765
			c0.799-0.996,1.937-1.488,3.298-1.488h10.654c2.499,0,4.171,1.207,4.952,3.668l1.47,5.171h9.763v-5.702
			c0-3.804-1.297-6.93-3.842-9.468c-2.595-2.516-5.719-3.781-9.484-3.781h-15.684c-3.736,0-6.957,1.309-9.548,3.952
			c-2.609,2.622-3.97,5.781-3.97,9.457v9.172c0,3.741,1.361,6.925,3.97,9.577c2.591,2.645,5.811,3.937,9.548,3.937h13.528
			c3.029,0,4.514,1.738,4.514,5.144v6.945c0,1.464-0.403,2.75-1.202,3.715c-0.827,1.012-1.951,1.496-3.312,1.496h-10.764
			c-2.704,0-4.344-1.242-5.034-3.648l-1.467-5.844h-9.781v6.308c0,3.847,1.283,6.976,3.814,9.507
			c2.577,2.524,5.702,3.796,9.498,3.796h15.889c3.765,0,6.953-1.328,9.608-3.972c2.612-2.601,3.924-5.8,3.924-9.565v-10.746
			c0-3.676-1.311-6.828-4.047-9.507C383.138,298.139,379.964,296.803,376.263,296.803z"/>
		<g>
			<polygon fill="#FFFFFF" points="269.005,108.996 148.123,108.996 129.639,138.392 250.475,138.322 			"/>
			<polygon fill="#FFFFFF" points="314.799,197.13 296.675,197.13 278.082,226.589 333.374,226.589 351.953,255.966 
				387.245,255.966 293.72,107.976 218.587,226.605 136.405,226.605 155.264,197.174 206.307,197.174 224.914,167.773 
				111.064,167.773 92.47,197.174 119.798,197.174 82.566,256.001 235.65,255.966 293.72,163.726 			"/>
			<path fill="#FFFFFF" d="M403.965,273.179l-2.421,3.715l-2.407-3.715h-1.032v6.148h1.032v-3.796c0-0.219-0.127-0.422-0.127-0.668
				c0.127,0.211,0.269,0.449,0.375,0.617l2.001,3.066h0.187l1.955-3.015c0.156-0.211,0.187-0.422,0.297-0.668
				c-0.032,0.309-0.032,0.504-0.032,0.668v3.796h1.11v-6.148H403.965z"/>
			<path fill="#FFFFFF" d="M219.305,271.094h-15.172c-3.779,0-6.981,1.309-9.622,3.952c-2.626,2.595-3.97,5.781-3.97,9.422v36.505
				c0,3.863,1.343,7.062,3.97,9.663c2.641,2.644,5.843,3.972,9.622,3.972h15.172c3.782,0,6.907-1.328,9.562-3.972
				c2.704-2.601,3.984-5.8,3.984-9.663v-36.505c0-3.684-1.28-6.906-3.984-9.464C226.212,272.402,223.087,271.094,219.305,271.094z
				 M221.648,319.117c0,1.477-0.421,2.707-1.297,3.699c-0.827,1.027-1.919,1.555-3.217,1.555h-10.767
				c-1.403,0-2.481-0.528-3.326-1.555c-0.813-0.992-1.202-2.222-1.202-3.699v-32.56c0-1.512,0.389-2.757,1.202-3.742
				c0.845-0.992,1.923-1.469,3.326-1.469h10.767c1.297,0,2.39,0.477,3.217,1.469c0.877,0.985,1.297,2.23,1.297,3.742V319.117z"/>
		</g>
	</g>
	<g>
		<g>
			<path fill="#FFFFFF" d="M1045.421,114.203h-51.512c-30.551,0-53.225,22.667-53.225,53.233V356.32h58.379V176.014
				c0-6.184,4.136-13.732,13.749-13.732h13.716c9.645,0,13.765,5.837,13.765,13.732v49.787h-30.906v48.08h30.906v82.439h58.37
				V167.436C1098.663,136.869,1075.996,114.203,1045.421,114.203z"/>
		</g>
	</g>
	<path fill="#FFFFFF" d="M772.327,167.802V356.32h58.798v-96.863h65.705v-48.408h-65.705v-34.594c0-6.224,4.165-13.844,13.83-13.844
		h76.105v-48.408h-95.134C795.156,114.203,772.327,137.015,772.327,167.802z"/>
	<rect x="690.313" y="114.203" fill="#FFFFFF" width="58.781" height="242.118"/>
	<path fill="#FFFFFF" d="M520.567,167.802V356.32h58.798v-96.863h65.722v-48.408h-65.722v-34.594
		c0-6.224,4.141-13.844,13.831-13.844h76.079v-48.408h-95.101C543.388,114.203,520.567,137.015,520.567,167.802z"/>
	<g>
		<g>
			<g>
				<path fill="#FFFFFF" d="M1173.91,114.177h-35.673v48.086h16.79c9.613,0,13.736,7.554,13.736,13.736V356.32h58.389V167.418
					C1227.152,136.849,1204.493,114.177,1173.91,114.177z"/>
			</g>
		</g>
	</g>
	<g>
		<g>
			<g>
				<path fill="#FFFFFF" d="M1387.183,231.779c12.896-8.529,28.656-24.562,28.656-50.487c0-53.838-35.46-69.247-78.085-69.247
					c-42.622,0-78.442,15.409-78.442,69.247c0,25.925,15.762,41.958,28.656,50.487c-13.969,8.87-31.879,24.901-31.879,54.58
					c0,56.872,36.536,72.661,81.665,72.661c45.131,0,81.667-15.789,81.667-72.661C1419.42,256.681,1401.154,240.65,1387.183,231.779
					z M1314.798,184.053c0-0.159,0-0.327,0-0.515l0,0.27c0-0.219,0.001-0.453,0.001-0.718c0-0.15-0.001-0.302-0.001-0.451h0.002
					c0.025-6.699,0.405-13.441,4.838-17.776c2.016-1.972,4.893-3.806,8.073-4.821c3.9-1.245,6.442-1.449,10.164-1.451v0l0.021,0
					c0.007,0,0.014,0,0.014,0l0.007,0c3.722,0.002,6.264,0.205,10.164,1.451c3.18,1.015,6.057,2.849,8.073,4.821
					c4.432,4.335,4.813,11.078,4.838,17.776h0.003c0,0.069,0,0.723,0,1.422l0-0.46c0,0.396-0.001,2.36-0.001,2.23
					c0-0.081,0.001-0.956,0.001-1.77l-0.002,2.218c-0.024,6.772-0.404,14.353-4.838,18.69c-2.016,1.972-4.893,3.806-8.073,4.821
					c-3.9,1.245-6.442,1.449-10.164,1.451v0c0,0-0.014,0-0.021,0l-0.021,0v0c-3.722-0.002-6.264-0.205-10.164-1.451
					c-3.181-1.015-6.057-2.849-8.073-4.821c-4.434-4.337-4.813-11.918-4.838-18.69l-0.002-2.471
					C1314.798,183.89,1314.798,183.977,1314.798,184.053C1314.798,185.812,1314.796,185.815,1314.798,184.053z M1362.821,287.303
					h-0.002c-0.024,6.772-0.404,14.353-4.838,18.69c-2.016,1.972-4.892,3.806-8.073,4.821c-3.901,1.245-8.255,1.449-11.991,1.451v0
					c0,0-0.014,0-0.021,0l-0.021,0v0c-3.736-0.001-8.09-0.205-11.991-1.451c-3.181-1.015-6.057-2.849-8.073-4.821
					c-4.434-4.337-4.813-11.918-4.838-18.69h-0.002c0-0.149,0.001-5.78,0.001-5.929c0-0.15-0.001-0.302-0.001-0.451h0.002
					c0.025-6.699,0.406-13.441,4.838-17.776c2.016-1.972,4.893-3.806,8.073-4.821c3.901-1.245,8.255-1.449,11.991-1.451v0l0.021,0
					c0.007,0,0.014,0,0.014,0l0.007,0c3.736,0.001,8.09,0.205,11.991,1.451c3.181,1.015,6.057,2.849,8.073,4.821
					c4.432,4.335,4.813,11.078,4.838,17.776h0.002c0,0.149-0.001,0.301-0.001,0.451
					C1362.82,281.523,1362.821,287.154,1362.821,287.303z"/>
			</g>
		</g>
		<g>
			<g>
				<path fill="#FFFFFF" d="M1542.27,57.417L1433.462,356.37h242.73l108.811-298.953H1542.27z M1674.462,353.9h-237.474
					l53.057-145.771h237.474L1674.462,353.9z M1490.946,205.658l53.053-145.771h237.474l-53.057,145.771H1490.946z"/>
			</g>
			<g>
				<g>
					<g>
						<polygon fill-rule="evenodd" clip-rule="evenodd" fill="#FFFFFF" points="1555.206,104.36 1555.206,159.951 1572.509,159.951 
							1572.509,139.873 1584.964,139.873 1589.392,127.725 1572.509,127.725 1572.509,116.471 1593.48,116.471 1597.893,104.36 
													"/>
					</g>
					<g>
						<rect x="1603.188" y="104.36" fill-rule="evenodd" clip-rule="evenodd" fill="#FFFFFF" width="17.303" height="55.591"/>
					</g>
					<g>
						<polygon fill-rule="evenodd" clip-rule="evenodd" fill="#FFFFFF" points="1632.396,104.36 1632.396,159.951 1649.699,159.951 
							1649.699,139.873 1662.155,139.873 1666.583,127.725 1649.699,127.725 1649.699,116.471 1670.67,116.471 1675.083,104.36 
													"/>
					</g>
					<g>
						<path fill-rule="evenodd" clip-rule="evenodd" fill="#FFFFFF" d="M1724.624,159.951h-17.473l-2.261-7.467h-19.552
							l-2.164,7.467h-17.037l20.254-55.591h17.99L1724.624,159.951z M1702.029,141.801l-6.916-23.157l-6.685,23.157H1702.029z"/>
					</g>
				</g>
				<g>
					<path fill="#FFFFFF" d="M1717.745,115.479c-0.77,0-1.491-0.147-2.164-0.439c-0.672-0.292-1.26-0.69-1.762-1.193
						c-0.503-0.503-0.901-1.091-1.194-1.763c-0.293-0.672-0.439-1.394-0.439-2.164c0-0.77,0.146-1.491,0.439-2.164
						c0.293-0.672,0.691-1.26,1.194-1.763c0.502-0.502,1.09-0.901,1.762-1.194c0.672-0.292,1.394-0.439,2.164-0.439
						c0.77,0,1.491,0.147,2.164,0.439c0.672,0.293,1.26,0.691,1.763,1.194c0.503,0.503,0.901,1.091,1.194,1.763
						c0.293,0.672,0.439,1.394,0.439,2.164c0,0.77-0.146,1.491-0.439,2.164c-0.293,0.672-0.69,1.26-1.194,1.763
						c-0.503,0.503-1.091,0.901-1.763,1.193C1719.237,115.332,1718.515,115.479,1717.745,115.479z M1717.745,114.401
						c0.585,0,1.132-0.11,1.64-0.331c0.508-0.221,0.952-0.531,1.332-0.932c0.38-0.4,0.68-0.875,0.9-1.424
						c0.221-0.549,0.332-1.147,0.332-1.794c0-0.647-0.111-1.244-0.332-1.794c-0.221-0.549-0.521-1.024-0.9-1.424
						c-0.38-0.4-0.824-0.711-1.332-0.932c-0.508-0.221-1.055-0.331-1.64-0.331c-0.585,0-1.132,0.111-1.64,0.331
						c-0.508,0.221-0.952,0.531-1.332,0.932c-0.38,0.4-0.68,0.875-0.9,1.424c-0.221,0.549-0.331,1.147-0.331,1.794
						c0,0.647,0.11,1.245,0.331,1.794c0.22,0.549,0.521,1.024,0.9,1.424c0.38,0.4,0.824,0.711,1.332,0.932
						C1716.614,114.291,1717.161,114.401,1717.745,114.401z M1715.605,106.747h2.341c0.759,0,1.337,0.142,1.732,0.424
						c0.395,0.283,0.593,0.758,0.593,1.424c0,0.545-0.144,0.95-0.431,1.217c-0.288,0.267-0.693,0.426-1.217,0.477l1.694,2.756
						h-1.201l-1.632-2.71h-0.708v2.71h-1.171V106.747z M1716.775,109.442h1.032c0.174,0,0.338-0.01,0.492-0.031
						c0.154-0.021,0.29-0.061,0.408-0.123c0.119-0.061,0.213-0.154,0.285-0.277c0.071-0.123,0.108-0.293,0.108-0.508
						c0-0.185-0.038-0.333-0.115-0.447c-0.077-0.113-0.177-0.2-0.3-0.262c-0.123-0.061-0.259-0.102-0.409-0.123
						c-0.148-0.021-0.3-0.031-0.454-0.031h-1.047V109.442z"/>
				</g>
			</g>
			<g>
				<g>
					<g>
						<path fill="#FFFFFF" d="M1521.601,248.495c0-1.538,0.205-2.922,0.618-4.146s1.02-2.265,1.824-3.118
							c0.808-0.852,1.81-1.505,3.01-1.964c1.196-0.457,2.583-0.686,4.16-0.686c1.574,0,2.961,0.229,4.16,0.686
							c1.196,0.459,2.198,1.112,3.006,1.964c0.805,0.852,1.415,1.893,1.824,3.118c0.413,1.224,0.618,2.608,0.618,4.146
							c0,1.521-0.205,2.894-0.618,4.118c-0.409,1.228-1.023,2.272-1.838,3.13c-0.815,0.861-1.821,1.521-3.021,1.98
							c-1.2,0.455-2.576,0.685-4.132,0.685c-1.577,0-2.957-0.229-4.15-0.685c-1.189-0.459-2.191-1.119-3.006-1.98
							c-0.815-0.858-1.426-1.902-1.838-3.13C1521.806,251.389,1521.601,250.016,1521.601,248.495z M1526.873,248.495
							c0,0.787,0.081,1.553,0.247,2.294c0.166,0.741,0.42,1.394,0.769,1.962c0.346,0.568,0.797,1.023,1.344,1.359
							c0.551,0.342,1.21,0.508,1.98,0.508c0.769,0,1.426-0.166,1.976-0.508c0.551-0.335,0.999-0.79,1.345-1.359
							c0.349-0.568,0.603-1.221,0.769-1.962c0.166-0.741,0.247-1.507,0.247-2.294c0-0.826-0.081-1.606-0.247-2.347
							c-0.166-0.745-0.42-1.394-0.769-1.951c-0.346-0.558-0.794-1.002-1.345-1.334c-0.55-0.328-1.207-0.494-1.976-0.494
							c-0.769,0-1.429,0.166-1.98,0.494c-0.547,0.332-0.999,0.776-1.344,1.334c-0.349,0.558-0.603,1.207-0.769,1.951
							C1526.954,246.889,1526.873,247.669,1526.873,248.495z"/>
					</g>
					<g>
						<path fill="#FFFFFF" d="M1544.916,238.911h12.823v3.624h-7.717v4.203h7.389v3.624h-7.389v7.717h-5.106V238.911z"/>
					</g>
					<g>
						<path fill="#FFFFFF" d="M1561.557,238.911h12.823v3.624h-7.717v4.203h7.389v3.624h-7.389v7.717h-5.106V238.911z"/>
					</g>
					<g>
						<path fill="#FFFFFF" d="M1578.583,238.911h5.109v19.168h-5.109V238.911z"/>
					</g>
					<g>
						<path fill="#FFFFFF" d="M1604.865,257.638c-0.734,0.183-1.539,0.36-2.417,0.522c-0.879,0.166-1.969,0.247-3.268,0.247
							c-1.281,0-2.576-0.173-3.885-0.519c-1.309-0.349-2.491-0.907-3.543-1.676c-1.055-0.769-1.912-1.782-2.583-3.035
							c-0.667-1.253-1.002-2.788-1.002-4.601c0-1.666,0.275-3.127,0.826-4.379c0.547-1.256,1.313-2.297,2.294-3.13
							c0.977-0.833,2.142-1.456,3.486-1.868c1.344-0.411,2.805-0.618,4.379-0.618c0.988,0,1.951,0.095,2.883,0.288
							c0.935,0.192,1.87,0.427,2.802,0.7l-0.413,4.148c-0.822-0.459-1.641-0.797-2.456-1.016s-1.662-0.332-2.541-0.332
							c-0.914,0-1.74,0.155-2.47,0.469c-0.734,0.31-1.362,0.741-1.881,1.291c-0.522,0.547-0.928,1.203-1.21,1.962
							c-0.282,0.759-0.427,1.588-0.427,2.484c0,0.935,0.162,1.778,0.484,2.527c0.318,0.752,0.759,1.387,1.316,1.909
							c0.557,0.522,1.231,0.921,2.018,1.196c0.787,0.275,1.648,0.409,2.583,0.409c0.84,0,1.676-0.095,2.498-0.286
							c0.822-0.194,1.584-0.427,2.28-0.702L1604.865,257.638z"/>
					</g>
					<g>
						<path fill="#FFFFFF" d="M1608.821,238.911h5.106v19.168h-5.106V238.911z"/>
					</g>
					<g>
						<path fill="#FFFFFF" d="M1624.831,238.911h6.26l7.389,19.168h-5.604l-1.429-4.093h-7.195l-1.51,4.093h-5.187L1624.831,238.911
							z M1627.961,242.863h-0.056l-2.47,7.499h4.806L1627.961,242.863z"/>
					</g>
					<g>
						<path fill="#FFFFFF" d="M1641.857,238.911h5.11v15.378h7.908v3.79h-13.018V238.911z"/>
					</g>
				</g>
				<g>
					<g>
						<path fill="#FFFFFF" d="M1512.298,271.432h5.109v15.378h7.908v3.79h-13.017V271.432z"/>
					</g>
					<g>
						<path fill="#FFFFFF" d="M1529.186,271.432h5.11V290.6h-5.11V271.432z"/>
					</g>
					<g>
						<path fill="#FFFFFF" d="M1555.468,290.159c-0.734,0.184-1.538,0.36-2.417,0.522c-0.879,0.166-1.969,0.247-3.268,0.247
							c-1.281,0-2.576-0.173-3.885-0.519c-1.309-0.349-2.491-0.907-3.543-1.676c-1.055-0.769-1.913-1.782-2.583-3.035
							c-0.667-1.253-1.002-2.788-1.002-4.601c0-1.665,0.275-3.126,0.826-4.379c0.547-1.253,1.313-2.297,2.294-3.13
							c0.978-0.833,2.142-1.457,3.486-1.867c1.344-0.413,2.805-0.621,4.379-0.621c0.988,0,1.951,0.099,2.883,0.289
							c0.935,0.194,1.87,0.427,2.802,0.702l-0.413,4.146c-0.822-0.459-1.641-0.797-2.456-1.016
							c-0.815-0.219-1.662-0.332-2.541-0.332c-0.914,0-1.74,0.159-2.47,0.469c-0.734,0.311-1.362,0.741-1.881,1.292
							c-0.522,0.547-0.928,1.203-1.21,1.962c-0.282,0.759-0.427,1.588-0.427,2.484c0,0.935,0.162,1.779,0.483,2.527
							c0.318,0.752,0.759,1.387,1.316,1.909c0.557,0.522,1.231,0.921,2.018,1.196c0.787,0.275,1.648,0.409,2.583,0.409
							c0.84,0,1.676-0.095,2.498-0.286c0.822-0.194,1.584-0.427,2.28-0.702L1555.468,290.159z"/>
					</g>
					<g>
						<path fill="#FFFFFF" d="M1559.039,271.432h13.511v3.624h-8.402v3.956h7.936v3.624h-7.936v4.34h8.705v3.624h-13.815V271.432z"
							/>
					</g>
					<g>
						<path fill="#FFFFFF" d="M1577.41,271.432h6.51l6.482,13.018h0.053l-0.081-13.018h4.668V290.6h-6.345l-6.701-13.099h-0.053
							l0.162,13.099h-4.697V271.432z"/>
					</g>
					<g>
						<path fill="#FFFFFF" d="M1600.121,285.875c0.66,0.367,1.436,0.67,2.336,0.907c0.896,0.24,1.874,0.356,2.936,0.356
							c0.402,0,0.797-0.021,1.182-0.067c0.385-0.046,0.723-0.138,1.016-0.275c0.293-0.138,0.526-0.328,0.699-0.575
							c0.176-0.247,0.261-0.565,0.261-0.949c0-0.603-0.222-1.062-0.67-1.373c-0.448-0.31-1.009-0.582-1.676-0.808
							c-0.667-0.229-1.397-0.459-2.184-0.688c-0.787-0.229-1.514-0.55-2.181-0.96c-0.67-0.413-1.228-0.967-1.676-1.662
							c-0.448-0.695-0.674-1.63-0.674-2.802c0-1.154,0.258-2.11,0.769-2.869c0.512-0.762,1.168-1.362,1.965-1.8
							c0.794-0.441,1.687-0.752,2.675-0.935c0.988-0.18,1.969-0.275,2.939-0.275c0.935,0,1.831,0.067,2.693,0.194
							c0.861,0.127,1.609,0.304,2.251,0.522l-0.332,3.956c-0.656-0.314-1.348-0.536-2.071-0.674
							c-0.723-0.138-1.45-0.208-2.184-0.208c-0.328,0-0.692,0.014-1.083,0.042c-0.395,0.028-0.766,0.102-1.112,0.219
							c-0.349,0.12-0.642,0.3-0.879,0.536c-0.24,0.24-0.36,0.568-0.36,0.988c0,0.515,0.226,0.907,0.674,1.182
							s1.006,0.512,1.676,0.713c0.667,0.201,1.394,0.413,2.181,0.632c0.79,0.222,1.517,0.54,2.184,0.963
							c0.671,0.42,1.228,0.977,1.676,1.673c0.448,0.699,0.674,1.623,0.674,2.774c0,1.246-0.24,2.276-0.716,3.091
							c-0.476,0.815-1.108,1.461-1.895,1.937c-0.787,0.476-1.687,0.808-2.703,1.002c-1.016,0.19-2.057,0.286-3.119,0.286
							c-0.896,0-1.856-0.067-2.883-0.205c-1.023-0.138-1.969-0.342-2.827-0.618L1600.121,285.875z"/>
					</g>
					<g>
						<path fill="#FFFFFF" d="M1618.082,271.432h13.511v3.624h-8.405v3.956h7.936v3.624h-7.936v4.34h8.705v3.624h-13.811V271.432z"
							/>
					</g>
					<g>
						<path fill="#FFFFFF" d="M1641.481,286.81h1.976c1.923,0,3.395-0.483,4.422-1.454c1.023-0.97,1.538-2.417,1.538-4.34
							s-0.522-3.37-1.567-4.34c-1.044-0.97-2.509-1.454-4.393-1.454h-1.976V286.81z M1636.371,271.432h6.976
							c1.666,0,3.194,0.145,4.584,0.438c1.394,0.293,2.587,0.801,3.585,1.524c0.999,0.723,1.775,1.701,2.336,2.925
							c0.557,1.228,0.836,2.767,0.836,4.616c0,1.793-0.286,3.303-0.85,4.531c-0.568,1.224-1.355,2.22-2.364,2.978
							c-1.006,0.759-2.205,1.309-3.596,1.648c-1.39,0.339-2.901,0.508-4.531,0.508h-6.976V271.432z"/>
					</g>
				</g>
				<g>
					<g>
						<path fill="#FFFFFF" d="M1500.51,303.952h6.098c2.946,0,5.117,0.508,6.507,1.524c1.394,1.016,2.089,2.604,2.089,4.764
							c0,1.941-0.67,3.455-2.004,4.545c-1.337,1.09-3.204,1.634-5.604,1.634h-1.976v6.701h-5.11V303.952z M1505.619,312.795h1.316
							c0.441,0,0.854-0.042,1.239-0.124c0.385-0.085,0.716-0.229,1.002-0.441c0.282-0.208,0.508-0.483,0.67-0.822
							c0.166-0.339,0.247-0.755,0.247-1.249s-0.081-0.907-0.247-1.239c-0.162-0.328-0.388-0.593-0.67-0.794
							c-0.286-0.201-0.618-0.342-1.002-0.427c-0.385-0.081-0.797-0.123-1.239-0.123h-1.316V312.795z"/>
					</g>
					<g>
						<path fill="#FFFFFF" d="M1518.799,303.952h9.118c0.843,0,1.637,0.095,2.389,0.289c0.752,0.19,1.408,0.487,1.976,0.893
							c0.568,0.402,1.013,0.903,1.334,1.51c0.321,0.603,0.48,1.316,0.48,2.142c0,1.281-0.303,2.333-0.907,3.158
							c-0.603,0.822-1.528,1.38-2.774,1.673v0.056c0.402,0.109,0.727,0.282,0.974,0.522c0.247,0.236,0.462,0.533,0.646,0.893
							c0.183,0.356,0.353,0.769,0.508,1.235c0.155,0.466,0.353,0.992,0.593,1.577l1.867,5.219h-5.328l-1.097-3.462
							c-0.258-0.822-0.501-1.5-0.73-2.029c-0.226-0.533-0.473-0.953-0.741-1.263c-0.265-0.314-0.568-0.529-0.903-0.646
							c-0.342-0.12-0.748-0.18-1.224-0.18h-1.069v7.58h-5.109V303.952z M1523.909,311.917h1.345c0.402,0,0.829-0.014,1.277-0.042
							c0.448-0.028,0.85-0.113,1.207-0.261c0.36-0.145,0.656-0.367,0.893-0.66c0.24-0.293,0.356-0.713,0.356-1.263
							c0-0.438-0.102-0.798-0.314-1.083c-0.212-0.282-0.487-0.497-0.826-0.646c-0.339-0.145-0.73-0.247-1.179-0.3
							c-0.448-0.056-0.921-0.085-1.415-0.085h-1.345V311.917z"/>
					</g>
					<g>
						<path fill="#FFFFFF" d="M1537.914,313.536c0-1.539,0.205-2.922,0.618-4.146c0.413-1.228,1.02-2.266,1.824-3.119
							c0.808-0.85,1.81-1.503,3.01-1.962c1.196-0.459,2.583-0.688,4.16-0.688c1.574,0,2.961,0.229,4.16,0.688
							c1.196,0.459,2.198,1.112,3.006,1.962c0.805,0.854,1.415,1.891,1.824,3.119c0.413,1.224,0.618,2.608,0.618,4.146
							c0,1.521-0.205,2.894-0.618,4.118c-0.409,1.228-1.023,2.273-1.838,3.13c-0.815,0.861-1.821,1.521-3.021,1.98
							c-1.2,0.455-2.576,0.685-4.132,0.685c-1.577,0-2.957-0.229-4.15-0.685c-1.189-0.459-2.191-1.119-3.006-1.98
							c-0.815-0.857-1.426-1.902-1.838-3.13C1538.119,316.43,1537.914,315.057,1537.914,313.536z M1543.186,313.536
							c0,0.787,0.081,1.553,0.247,2.294c0.166,0.741,0.42,1.394,0.769,1.962c0.346,0.568,0.798,1.023,1.344,1.359
							c0.55,0.342,1.21,0.508,1.98,0.508c0.769,0,1.426-0.166,1.976-0.508c0.551-0.335,0.999-0.79,1.344-1.359
							c0.349-0.568,0.603-1.221,0.769-1.962c0.166-0.741,0.247-1.507,0.247-2.294c0-0.826-0.081-1.606-0.247-2.347
							c-0.166-0.745-0.42-1.394-0.769-1.951c-0.346-0.558-0.794-1.002-1.344-1.33c-0.55-0.332-1.207-0.498-1.976-0.498
							c-0.769,0-1.429,0.166-1.98,0.498c-0.547,0.328-0.999,0.773-1.344,1.33c-0.349,0.557-0.603,1.207-0.769,1.951
							C1543.267,311.931,1543.186,312.711,1543.186,313.536z"/>
					</g>
					<g>
						<path fill="#FFFFFF" d="M1561.366,303.952h6.976c1.666,0,3.193,0.145,4.584,0.438c1.394,0.293,2.587,0.801,3.585,1.524
							c0.999,0.723,1.775,1.701,2.336,2.925c0.557,1.228,0.836,2.766,0.836,4.615c0,1.793-0.286,3.303-0.85,4.531
							c-0.568,1.224-1.355,2.22-2.364,2.978c-1.006,0.759-2.205,1.309-3.596,1.648c-1.39,0.339-2.901,0.508-4.531,0.508h-6.976
							V303.952z M1566.476,319.331h1.976c1.923,0,3.395-0.484,4.421-1.454c1.023-0.97,1.539-2.417,1.539-4.34
							c0-1.923-0.522-3.37-1.567-4.34c-1.045-0.97-2.509-1.454-4.393-1.454h-1.976V319.331z"/>
					</g>
					<g>
						<path fill="#FFFFFF" d="M1600.637,315.844c0,1.316-0.205,2.452-0.607,3.405c-0.402,0.953-0.974,1.74-1.715,2.361
							c-0.741,0.621-1.63,1.083-2.664,1.387c-1.034,0.304-2.174,0.452-3.419,0.452c-1.246,0-2.385-0.148-3.419-0.452
							c-1.034-0.303-1.92-0.766-2.664-1.387c-0.741-0.621-1.313-1.408-1.715-2.361c-0.402-0.953-0.603-2.089-0.603-3.405v-11.892
							h5.106v11.038c0,0.642,0.053,1.242,0.152,1.8c0.102,0.558,0.275,1.055,0.522,1.482c0.247,0.431,0.582,0.769,1.002,1.016
							c0.42,0.247,0.96,0.37,1.62,0.37c0.66,0,1.2-0.124,1.62-0.37c0.423-0.247,0.755-0.586,1.002-1.016
							c0.247-0.427,0.423-0.925,0.522-1.482c0.102-0.557,0.152-1.157,0.152-1.8v-11.038h5.109V315.844z"/>
					</g>
					<g>
						<path fill="#FFFFFF" d="M1621.287,322.679c-0.734,0.183-1.538,0.36-2.417,0.522c-0.879,0.166-1.969,0.247-3.268,0.247
							c-1.281,0-2.576-0.173-3.885-0.519c-1.309-0.349-2.491-0.907-3.543-1.676c-1.055-0.769-1.913-1.782-2.583-3.035
							c-0.667-1.253-1.002-2.788-1.002-4.602c0-1.665,0.275-3.126,0.826-4.379c0.547-1.253,1.313-2.297,2.294-3.13
							c0.977-0.833,2.142-1.457,3.486-1.867c1.344-0.413,2.805-0.621,4.379-0.621c0.988,0,1.951,0.099,2.883,0.289
							c0.935,0.194,1.87,0.427,2.802,0.702l-0.413,4.146c-0.822-0.459-1.641-0.798-2.456-1.016
							c-0.815-0.219-1.662-0.332-2.541-0.332c-0.914,0-1.74,0.159-2.47,0.469c-0.734,0.311-1.362,0.741-1.881,1.292
							c-0.522,0.547-0.928,1.203-1.21,1.962c-0.282,0.759-0.427,1.588-0.427,2.484c0,0.935,0.162,1.779,0.484,2.527
							c0.318,0.752,0.759,1.387,1.316,1.909c0.558,0.522,1.232,0.921,2.018,1.196c0.787,0.275,1.648,0.409,2.583,0.409
							c0.84,0,1.676-0.095,2.498-0.286c0.822-0.194,1.584-0.427,2.279-0.702L1621.287,322.679z"/>
					</g>
					<g>
						<path fill="#FFFFFF" d="M1628.288,307.742h-4.721v-3.79h14.556v3.79h-4.725v15.378h-5.11V307.742z"/>
					</g>
				</g>
			</g>
		</g>
	</g>
</g>
</svg>
